<svg id="visual" viewBox="0 0 540 960" width="540" height="960" xmlns="http://www.w3.org/2000/svg" xmlns:xlink="http://www.w3.org/1999/xlink" version="1.1"><rect x="0" y="0" width="540" height="960" fill="#140021"></rect><path d="M0 738L68 738L68 648L135 648L135 713L203 713L203 647L270 647L270 673L338 673L338 702L405 702L405 719L473 719L473 665L540 665L540 661L540 961L540 961L473 961L473 961L405 961L405 961L338 961L338 961L270 961L270 961L203 961L203 961L135 961L135 961L68 961L68 961L0 961Z" fill="#297ea6"></path><path d="M0 748L68 748L68 746L135 746L135 816L203 816L203 761L270 761L270 811L338 811L338 787L405 787L405 770L473 770L473 800L540 800L540 745L540 961L540 961L473 961L473 961L405 961L405 961L338 961L338 961L270 961L270 961L203 961L203 961L135 961L135 961L68 961L68 961L0 961Z" fill="#007ada"></path><path d="M0 879L68 879L68 878L135 878L135 856L203 856L203 871L270 871L270 837L338 837L338 860L405 860L405 839L473 839L473 898L540 898L540 899L540 961L540 961L473 961L473 961L405 961L405 961L338 961L338 961L270 961L270 961L203 961L203 961L135 961L135 961L68 961L68 961L0 961Z" fill="#0066ff"></path></svg>