<svg id="visual" viewBox="0 0 960 540" width="960" height="540" xmlns="http://www.w3.org/2000/svg" xmlns:xlink="http://www.w3.org/1999/xlink" version="1.1"><rect x="0" y="0" width="960" height="540" fill="#001220"></rect><path d="M0 368L22.8 365.5C45.7 363 91.3 358 137 351.5C182.7 345 228.3 337 274 332C319.7 327 365.3 325 411.2 335.3C457 345.7 503 368.3 548.8 380C594.7 391.7 640.3 392.3 686 381.3C731.7 370.3 777.3 347.7 823 344.3C868.7 341 914.3 357 937.2 365L960 373L960 541L937.2 541C914.3 541 868.7 541 823 541C777.3 541 731.7 541 686 541C640.3 541 594.7 541 548.8 541C503 541 457 541 411.2 541C365.3 541 319.7 541 274 541C228.3 541 182.7 541 137 541C91.3 541 45.7 541 22.8 541L0 541Z" fill="#fa7268"></path><path d="M0 416L22.8 416.2C45.7 416.3 91.3 416.7 137 410C182.7 403.3 228.3 389.7 274 391C319.7 392.3 365.3 408.7 411.2 409.3C457 410 503 395 548.8 385C594.7 375 640.3 370 686 368.8C731.7 367.7 777.3 370.3 823 372.5C868.7 374.7 914.3 376.3 937.2 377.2L960 378L960 541L937.2 541C914.3 541 868.7 541 823 541C777.3 541 731.7 541 686 541C640.3 541 594.7 541 548.8 541C503 541 457 541 411.2 541C365.3 541 319.7 541 274 541C228.3 541 182.7 541 137 541C91.3 541 45.7 541 22.8 541L0 541Z" fill="#ef5f67"></path><path d="M0 403L22.8 407.3C45.7 411.7 91.3 420.3 137 422.3C182.7 424.3 228.3 419.7 274 423.2C319.7 426.7 365.3 438.3 411.2 435.3C457 432.3 503 414.7 548.8 407.3C594.7 400 640.3 403 686 413.3C731.7 423.7 777.3 441.3 823 442.2C868.7 443 914.3 427 937.2 419L960 411L960 541L937.2 541C914.3 541 868.7 541 823 541C777.3 541 731.7 541 686 541C640.3 541 594.7 541 548.8 541C503 541 457 541 411.2 541C365.3 541 319.7 541 274 541C228.3 541 182.7 541 137 541C91.3 541 45.7 541 22.8 541L0 541Z" fill="#e34c67"></path><path d="M0 452L22.8 453.2C45.7 454.3 91.3 456.7 137 462C182.7 467.3 228.3 475.7 274 475.5C319.7 475.3 365.3 466.7 411.2 461.3C457 456 503 454 548.8 450.7C594.7 447.3 640.3 442.7 686 439.5C731.7 436.3 777.3 434.7 823 439.7C868.7 444.7 914.3 456.3 937.2 462.2L960 468L960 541L937.2 541C914.3 541 868.7 541 823 541C777.3 541 731.7 541 686 541C640.3 541 594.7 541 548.8 541C503 541 457 541 411.2 541C365.3 541 319.7 541 274 541C228.3 541 182.7 541 137 541C91.3 541 45.7 541 22.8 541L0 541Z" fill="#d53867"></path><path d="M0 483L22.8 484.3C45.7 485.7 91.3 488.3 137 491.2C182.7 494 228.3 497 274 499.7C319.7 502.3 365.3 504.7 411.2 502.7C457 500.7 503 494.3 548.8 488.7C594.7 483 640.3 478 686 479.5C731.7 481 777.3 489 823 495C868.7 501 914.3 505 937.2 507L960 509L960 541L937.2 541C914.3 541 868.7 541 823 541C777.3 541 731.7 541 686 541C640.3 541 594.7 541 548.8 541C503 541 457 541 411.2 541C365.3 541 319.7 541 274 541C228.3 541 182.7 541 137 541C91.3 541 45.7 541 22.8 541L0 541Z" fill="#c62368"></path></svg>